<mxfile host="Electron" agent="Mozilla/5.0 (Windows NT 10.0; Win64; x64) AppleWebKit/537.36 (KHTML, like Gecko) draw.io/24.7.8 Chrome/128.0.6613.36 Electron/32.0.1 Safari/537.36" version="24.7.8">
  <diagram name="Страница — 1" id="LPPvL07h_fH4b8GmcqN1">
    <mxGraphModel dx="3407" dy="1258" grid="1" gridSize="10" guides="1" tooltips="1" connect="1" arrows="1" fold="1" page="1" pageScale="1" pageWidth="827" pageHeight="1169" math="0" shadow="0">
      <root>
        <mxCell id="0" />
        <mxCell id="1" parent="0" />
        <mxCell id="fqUhBs8Az35cQ_M2xpQq-1" value="" style="rounded=0;whiteSpace=wrap;html=1;" vertex="1" parent="1">
          <mxGeometry x="-160" y="40" width="1920" height="1080" as="geometry" />
        </mxCell>
        <mxCell id="fqUhBs8Az35cQ_M2xpQq-2" value="" style="rounded=0;whiteSpace=wrap;html=1;" vertex="1" parent="1">
          <mxGeometry y="40" width="1600" height="1080" as="geometry" />
        </mxCell>
        <mxCell id="fqUhBs8Az35cQ_M2xpQq-3" value="" style="rounded=0;whiteSpace=wrap;html=1;" vertex="1" parent="1">
          <mxGeometry y="40" width="1600" height="120" as="geometry" />
        </mxCell>
        <mxCell id="fqUhBs8Az35cQ_M2xpQq-4" value="&lt;font style=&quot;font-size: 24px;&quot;&gt;логотип&lt;/font&gt;" style="ellipse;whiteSpace=wrap;html=1;aspect=fixed;" vertex="1" parent="1">
          <mxGeometry x="10" y="50" width="100" height="100" as="geometry" />
        </mxCell>
        <mxCell id="fqUhBs8Az35cQ_M2xpQq-5" value="&lt;font style=&quot;font-size: 36px;&quot;&gt;Название сайта&lt;/font&gt;" style="text;html=1;align=center;verticalAlign=middle;whiteSpace=wrap;rounded=0;" vertex="1" parent="1">
          <mxGeometry x="130" y="85" width="290" height="30" as="geometry" />
        </mxCell>
        <mxCell id="fqUhBs8Az35cQ_M2xpQq-6" value="&lt;font style=&quot;font-size: 24px;&quot;&gt;поиск&lt;/font&gt;" style="rounded=1;whiteSpace=wrap;html=1;" vertex="1" parent="1">
          <mxGeometry x="1120" y="70" width="460" height="60" as="geometry" />
        </mxCell>
        <mxCell id="fqUhBs8Az35cQ_M2xpQq-7" value="&lt;font style=&quot;font-size: 24px;&quot;&gt;Категория&lt;/font&gt;" style="rounded=1;whiteSpace=wrap;html=1;" vertex="1" parent="1">
          <mxGeometry y="160" width="220" height="80" as="geometry" />
        </mxCell>
        <mxCell id="fqUhBs8Az35cQ_M2xpQq-8" value="&lt;span style=&quot;font-size: 24px;&quot;&gt;Категория&lt;/span&gt;" style="rounded=1;whiteSpace=wrap;html=1;" vertex="1" parent="1">
          <mxGeometry x="220" y="160" width="230" height="80" as="geometry" />
        </mxCell>
        <mxCell id="fqUhBs8Az35cQ_M2xpQq-9" value="&lt;span style=&quot;font-size: 24px;&quot;&gt;Категория&lt;/span&gt;" style="rounded=1;whiteSpace=wrap;html=1;" vertex="1" parent="1">
          <mxGeometry x="450" y="160" width="230" height="80" as="geometry" />
        </mxCell>
        <mxCell id="fqUhBs8Az35cQ_M2xpQq-10" value="&lt;span style=&quot;font-size: 24px;&quot;&gt;Категория&lt;/span&gt;" style="rounded=1;whiteSpace=wrap;html=1;" vertex="1" parent="1">
          <mxGeometry x="680" y="160" width="230" height="80" as="geometry" />
        </mxCell>
        <mxCell id="fqUhBs8Az35cQ_M2xpQq-11" value="&lt;span style=&quot;font-size: 24px;&quot;&gt;Категория&lt;/span&gt;" style="rounded=1;whiteSpace=wrap;html=1;" vertex="1" parent="1">
          <mxGeometry x="910" y="160" width="230" height="80" as="geometry" />
        </mxCell>
        <mxCell id="fqUhBs8Az35cQ_M2xpQq-12" value="&lt;span style=&quot;font-size: 24px;&quot;&gt;Категория&lt;/span&gt;" style="rounded=1;whiteSpace=wrap;html=1;" vertex="1" parent="1">
          <mxGeometry x="1140" y="160" width="230" height="80" as="geometry" />
        </mxCell>
        <mxCell id="fqUhBs8Az35cQ_M2xpQq-13" value="&lt;span style=&quot;font-size: 24px;&quot;&gt;Категория&lt;/span&gt;" style="rounded=1;whiteSpace=wrap;html=1;" vertex="1" parent="1">
          <mxGeometry x="1370" y="160" width="230" height="80" as="geometry" />
        </mxCell>
        <mxCell id="fqUhBs8Az35cQ_M2xpQq-14" value="&lt;font style=&quot;font-size: 36px;&quot;&gt;Популярное&lt;/font&gt;" style="text;html=1;align=center;verticalAlign=middle;whiteSpace=wrap;rounded=0;" vertex="1" parent="1">
          <mxGeometry x="20" y="270" width="180" height="30" as="geometry" />
        </mxCell>
        <mxCell id="fqUhBs8Az35cQ_M2xpQq-15" value="&lt;font style=&quot;font-size: 24px;&quot;&gt;Календарь&lt;/font&gt;" style="swimlane;whiteSpace=wrap;html=1;startSize=60;" vertex="1" parent="1">
          <mxGeometry x="1310" y="310" width="280" height="250" as="geometry" />
        </mxCell>
        <mxCell id="fqUhBs8Az35cQ_M2xpQq-17" value="&lt;font style=&quot;font-size: 24px;&quot;&gt;Реклама&lt;/font&gt;" style="rounded=1;whiteSpace=wrap;html=1;" vertex="1" parent="1">
          <mxGeometry x="1310" y="585" width="280" height="325" as="geometry" />
        </mxCell>
        <mxCell id="fqUhBs8Az35cQ_M2xpQq-18" value="&lt;font style=&quot;font-size: 24px;&quot;&gt;Реклама&lt;/font&gt;" style="rounded=1;whiteSpace=wrap;html=1;" vertex="1" parent="1">
          <mxGeometry x="1310" y="940" width="280" height="180" as="geometry" />
        </mxCell>
        <mxCell id="fqUhBs8Az35cQ_M2xpQq-19" value="" style="rounded=0;whiteSpace=wrap;html=1;" vertex="1" parent="1">
          <mxGeometry y="310" width="1250" height="810" as="geometry" />
        </mxCell>
        <mxCell id="fqUhBs8Az35cQ_M2xpQq-20" value="" style="rounded=0;whiteSpace=wrap;html=1;" vertex="1" parent="1">
          <mxGeometry y="310" width="620" height="280" as="geometry" />
        </mxCell>
        <mxCell id="fqUhBs8Az35cQ_M2xpQq-21" value="" style="rounded=0;whiteSpace=wrap;html=1;" vertex="1" parent="1">
          <mxGeometry x="620" y="310" width="630" height="480" as="geometry" />
        </mxCell>
        <mxCell id="fqUhBs8Az35cQ_M2xpQq-22" value="" style="rounded=0;whiteSpace=wrap;html=1;" vertex="1" parent="1">
          <mxGeometry y="590" width="310" height="280" as="geometry" />
        </mxCell>
        <mxCell id="fqUhBs8Az35cQ_M2xpQq-23" value="" style="rounded=0;whiteSpace=wrap;html=1;" vertex="1" parent="1">
          <mxGeometry x="310" y="590" width="310" height="280" as="geometry" />
        </mxCell>
        <mxCell id="fqUhBs8Az35cQ_M2xpQq-24" value="" style="rounded=0;whiteSpace=wrap;html=1;" vertex="1" parent="1">
          <mxGeometry x="620" y="790" width="630" height="330" as="geometry" />
        </mxCell>
        <mxCell id="fqUhBs8Az35cQ_M2xpQq-25" value="&lt;font style=&quot;font-size: 36px;&quot;&gt;Название&lt;/font&gt;" style="text;html=1;align=center;verticalAlign=middle;whiteSpace=wrap;rounded=0;" vertex="1" parent="1">
          <mxGeometry x="620" y="740" width="220" height="30" as="geometry" />
        </mxCell>
        <mxCell id="fqUhBs8Az35cQ_M2xpQq-26" value="&lt;font style=&quot;font-size: 36px;&quot;&gt;Название&lt;/font&gt;" style="text;html=1;align=center;verticalAlign=middle;whiteSpace=wrap;rounded=0;" vertex="1" parent="1">
          <mxGeometry y="1080" width="220" height="30" as="geometry" />
        </mxCell>
        <mxCell id="fqUhBs8Az35cQ_M2xpQq-27" value="&lt;font style=&quot;font-size: 36px;&quot;&gt;Название&lt;/font&gt;" style="text;html=1;align=center;verticalAlign=middle;whiteSpace=wrap;rounded=0;" vertex="1" parent="1">
          <mxGeometry y="555" width="220" height="30" as="geometry" />
        </mxCell>
        <mxCell id="fqUhBs8Az35cQ_M2xpQq-28" value="&lt;font style=&quot;font-size: 36px;&quot;&gt;Название&lt;/font&gt;" style="text;html=1;align=center;verticalAlign=middle;whiteSpace=wrap;rounded=0;" vertex="1" parent="1">
          <mxGeometry y="830" width="220" height="30" as="geometry" />
        </mxCell>
        <mxCell id="fqUhBs8Az35cQ_M2xpQq-29" value="&lt;font style=&quot;font-size: 36px;&quot;&gt;Название&lt;/font&gt;" style="text;html=1;align=center;verticalAlign=middle;whiteSpace=wrap;rounded=0;" vertex="1" parent="1">
          <mxGeometry x="310" y="830" width="220" height="30" as="geometry" />
        </mxCell>
        <mxCell id="fqUhBs8Az35cQ_M2xpQq-30" value="&lt;font style=&quot;font-size: 36px;&quot;&gt;Название&lt;/font&gt;" style="text;html=1;align=center;verticalAlign=middle;whiteSpace=wrap;rounded=0;" vertex="1" parent="1">
          <mxGeometry x="620" y="1080" width="220" height="30" as="geometry" />
        </mxCell>
        <mxCell id="fqUhBs8Az35cQ_M2xpQq-35" value="&lt;font color=&quot;#e6e6e6&quot; style=&quot;font-size: 24px;&quot;&gt;*фото*&lt;/font&gt;" style="text;html=1;align=center;verticalAlign=middle;whiteSpace=wrap;rounded=0;" vertex="1" parent="1">
          <mxGeometry x="750" y="420" width="300" height="115" as="geometry" />
        </mxCell>
        <mxCell id="fqUhBs8Az35cQ_M2xpQq-36" value="&lt;font color=&quot;#e6e6e6&quot; style=&quot;font-size: 24px;&quot;&gt;*фото*&lt;/font&gt;" style="text;html=1;align=center;verticalAlign=middle;whiteSpace=wrap;rounded=0;" vertex="1" parent="1">
          <mxGeometry x="140" y="377.5" width="300" height="115" as="geometry" />
        </mxCell>
        <mxCell id="fqUhBs8Az35cQ_M2xpQq-37" value="&lt;font color=&quot;#e6e6e6&quot; style=&quot;font-size: 24px;&quot;&gt;*фото*&lt;/font&gt;" style="text;html=1;align=center;verticalAlign=middle;whiteSpace=wrap;rounded=0;" vertex="1" parent="1">
          <mxGeometry x="5" y="640" width="300" height="115" as="geometry" />
        </mxCell>
        <mxCell id="fqUhBs8Az35cQ_M2xpQq-38" value="&lt;font color=&quot;#e6e6e6&quot; style=&quot;font-size: 24px;&quot;&gt;*фото*&lt;/font&gt;" style="text;html=1;align=center;verticalAlign=middle;whiteSpace=wrap;rounded=0;" vertex="1" parent="1">
          <mxGeometry x="315" y="640" width="300" height="115" as="geometry" />
        </mxCell>
        <mxCell id="fqUhBs8Az35cQ_M2xpQq-39" value="&lt;font color=&quot;#e6e6e6&quot; style=&quot;font-size: 24px;&quot;&gt;*фото*&lt;/font&gt;" style="text;html=1;align=center;verticalAlign=middle;whiteSpace=wrap;rounded=0;" vertex="1" parent="1">
          <mxGeometry x="760" y="870" width="300" height="115" as="geometry" />
        </mxCell>
        <mxCell id="fqUhBs8Az35cQ_M2xpQq-40" value="&lt;font color=&quot;#e6e6e6&quot; style=&quot;font-size: 24px;&quot;&gt;*фото*&lt;/font&gt;" style="text;html=1;align=center;verticalAlign=middle;whiteSpace=wrap;rounded=0;" vertex="1" parent="1">
          <mxGeometry x="140" y="910" width="300" height="115" as="geometry" />
        </mxCell>
      </root>
    </mxGraphModel>
  </diagram>
</mxfile>
